<?xml version="1.0" encoding="UTF-8"?>
<svg id="Layer_1" data-name="Layer 1" xmlns="http://www.w3.org/2000/svg" version="1.1" viewBox="0 0 1000 1000">
  <defs>
    <style>
      .cls-1 {
        fill: #059d4b;
      }

      .cls-1, .cls-2, .cls-3, .cls-4 {
        stroke-width: 0px;
      }

      .cls-2 {
        fill: #0fa755;
      }

      .cls-3 {
        fill: #0aa250;
      }

      .cls-4 {
        fill: #009846;
      }
    </style>
  </defs>
  <g id="Layer_12" data-name="Layer 12">
    <rect class="cls-1" x="0" y="0" width="1000" height="1000"/>
  </g>
  <g id="Layer_11" data-name="Layer 11">
    <polygon class="cls-4" points="0 1000 1000 1000 1000 0 241.9 0 0 253.8 0 1000"/>
  </g>
  <g id="Layer_10" data-name="Layer 10">
    <polygon class="cls-2" points="0 1000 1000 1000 1000 0 468.5 0 0 448.2 0 1000"/>
  </g>
  <g id="Layer_9" data-name="Layer 9">
    <polygon class="cls-3" points="0 1000 1000 1000 1000 0 715.8 0 0 604.4 0 1000"/>
  </g>
  <g id="Layer_8" data-name="Layer 8">
    <polygon class="cls-1" points="0 1000 1000 1000 1000 0 991.3 0 0 739.7 0 1000"/>
  </g>
  <g id="Layer_7" data-name="Layer 7">
    <polygon class="cls-4" points="0 1000 1000 1000 1000 199 0 853.5 0 1000"/>
  </g>
  <g id="Layer_6" data-name="Layer 6">
    <polygon class="cls-2" points="0 1000 1000 1000 1000 386.3 0 953.1 0 1000"/>
  </g>
  <polygon class="cls-3" points="94.3 1000 1000 1000 1000 560 94.3 1000"/>
  <g id="Layer_3" data-name="Layer 3">
    <path class="cls-1" d="M278.2,1000h721.8v-259.3c-218,76.7-545.3,195.2-721.8,259.3Z"/>
  </g>
  <g id="Layer_4" data-name="Layer 4">
    <polygon class="cls-4" points="576.5 1000 1000 1000 1000 908.3 576.5 1000"/>
  </g>
</svg>